<mxfile host="app.diagrams.net" modified="2022-03-18T16:09:05.803Z" agent="5.0 (Windows NT 10.0; Win64; x64) AppleWebKit/537.36 (KHTML, like Gecko) Chrome/98.0.4758.102 Safari/537.36" etag="XCFG3sv4D5pHWX1xxFfu" version="16.6.4" type="github">
  <diagram id="F5COlkk1ww_O2vg0XRnn" name="Page-1">
    <mxGraphModel dx="1038" dy="547" grid="1" gridSize="10" guides="1" tooltips="1" connect="1" arrows="1" fold="1" page="1" pageScale="1" pageWidth="2339" pageHeight="3300" math="0" shadow="0">
      <root>
        <mxCell id="0" />
        <mxCell id="1" parent="0" />
        <mxCell id="Fz26QJrTUj5SuILDPpWq-11" style="edgeStyle=orthogonalEdgeStyle;rounded=0;orthogonalLoop=1;jettySize=auto;html=1;exitX=0.5;exitY=1;exitDx=0;exitDy=0;" edge="1" parent="1" source="Fz26QJrTUj5SuILDPpWq-1" target="Fz26QJrTUj5SuILDPpWq-3">
          <mxGeometry relative="1" as="geometry" />
        </mxCell>
        <mxCell id="Fz26QJrTUj5SuILDPpWq-1" value="Forest Cover Prediction" style="shape=parallelogram;perimeter=parallelogramPerimeter;whiteSpace=wrap;html=1;fixedSize=1;" vertex="1" parent="1">
          <mxGeometry x="470" y="40" width="120" height="60" as="geometry" />
        </mxCell>
        <mxCell id="Fz26QJrTUj5SuILDPpWq-12" style="edgeStyle=orthogonalEdgeStyle;rounded=0;orthogonalLoop=1;jettySize=auto;html=1;exitX=0;exitY=0.5;exitDx=0;exitDy=0;exitPerimeter=0;entryX=1;entryY=0.5;entryDx=0;entryDy=0;" edge="1" parent="1" source="Fz26QJrTUj5SuILDPpWq-2" target="Fz26QJrTUj5SuILDPpWq-3">
          <mxGeometry relative="1" as="geometry" />
        </mxCell>
        <mxCell id="Fz26QJrTUj5SuILDPpWq-2" value="Forest cover and topology dataset" style="shape=cylinder3;whiteSpace=wrap;html=1;boundedLbl=1;backgroundOutline=1;size=15;" vertex="1" parent="1">
          <mxGeometry x="640" y="125" width="70" height="90" as="geometry" />
        </mxCell>
        <mxCell id="Fz26QJrTUj5SuILDPpWq-14" style="edgeStyle=orthogonalEdgeStyle;rounded=0;orthogonalLoop=1;jettySize=auto;html=1;exitX=0.5;exitY=1;exitDx=0;exitDy=0;entryX=0.5;entryY=0;entryDx=0;entryDy=0;" edge="1" parent="1" source="Fz26QJrTUj5SuILDPpWq-3" target="Fz26QJrTUj5SuILDPpWq-13">
          <mxGeometry relative="1" as="geometry" />
        </mxCell>
        <mxCell id="Fz26QJrTUj5SuILDPpWq-3" value="Download from Kaggel" style="rounded=1;whiteSpace=wrap;html=1;" vertex="1" parent="1">
          <mxGeometry x="470" y="140" width="120" height="60" as="geometry" />
        </mxCell>
        <mxCell id="Fz26QJrTUj5SuILDPpWq-18" style="edgeStyle=orthogonalEdgeStyle;rounded=0;orthogonalLoop=1;jettySize=auto;html=1;exitX=0.5;exitY=1;exitDx=0;exitDy=0;entryX=0.5;entryY=0;entryDx=0;entryDy=0;" edge="1" parent="1" source="Fz26QJrTUj5SuILDPpWq-4" target="Fz26QJrTUj5SuILDPpWq-7">
          <mxGeometry relative="1" as="geometry" />
        </mxCell>
        <mxCell id="Fz26QJrTUj5SuILDPpWq-4" value="Binary decoding of variables" style="rounded=1;whiteSpace=wrap;html=1;" vertex="1" parent="1">
          <mxGeometry x="400" y="320" width="120" height="60" as="geometry" />
        </mxCell>
        <mxCell id="Fz26QJrTUj5SuILDPpWq-20" style="edgeStyle=orthogonalEdgeStyle;rounded=0;orthogonalLoop=1;jettySize=auto;html=1;exitX=0.5;exitY=1;exitDx=0;exitDy=0;entryX=0.5;entryY=0;entryDx=0;entryDy=0;" edge="1" parent="1" source="Fz26QJrTUj5SuILDPpWq-6" target="Fz26QJrTUj5SuILDPpWq-7">
          <mxGeometry relative="1" as="geometry" />
        </mxCell>
        <mxCell id="Fz26QJrTUj5SuILDPpWq-6" value="Soil type aggregation" style="rounded=1;whiteSpace=wrap;html=1;" vertex="1" parent="1">
          <mxGeometry x="550" y="320" width="120" height="60" as="geometry" />
        </mxCell>
        <mxCell id="Fz26QJrTUj5SuILDPpWq-7" value="Model configuration and training" style="rounded=1;whiteSpace=wrap;html=1;" vertex="1" parent="1">
          <mxGeometry x="470" y="420" width="120" height="60" as="geometry" />
        </mxCell>
        <mxCell id="Fz26QJrTUj5SuILDPpWq-8" value="Data acquisition&amp;nbsp;" style="shape=hexagon;perimeter=hexagonPerimeter2;whiteSpace=wrap;html=1;fixedSize=1;" vertex="1" parent="1">
          <mxGeometry x="110" y="125" width="120" height="80" as="geometry" />
        </mxCell>
        <mxCell id="Fz26QJrTUj5SuILDPpWq-9" value="Data manipulation and tidy in R" style="shape=hexagon;perimeter=hexagonPerimeter2;whiteSpace=wrap;html=1;fixedSize=1;" vertex="1" parent="1">
          <mxGeometry x="110" y="230" width="120" height="80" as="geometry" />
        </mxCell>
        <mxCell id="Fz26QJrTUj5SuILDPpWq-10" value="Forest cover type prediction in rapidminer" style="shape=hexagon;perimeter=hexagonPerimeter2;whiteSpace=wrap;html=1;fixedSize=1;" vertex="1" parent="1">
          <mxGeometry x="110" y="340" width="120" height="80" as="geometry" />
        </mxCell>
        <mxCell id="Fz26QJrTUj5SuILDPpWq-16" style="edgeStyle=orthogonalEdgeStyle;rounded=0;orthogonalLoop=1;jettySize=auto;html=1;exitX=0.5;exitY=1;exitDx=0;exitDy=0;entryX=0.5;entryY=0;entryDx=0;entryDy=0;" edge="1" parent="1" source="Fz26QJrTUj5SuILDPpWq-13" target="Fz26QJrTUj5SuILDPpWq-4">
          <mxGeometry relative="1" as="geometry" />
        </mxCell>
        <mxCell id="Fz26QJrTUj5SuILDPpWq-17" style="edgeStyle=orthogonalEdgeStyle;rounded=0;orthogonalLoop=1;jettySize=auto;html=1;exitX=0.5;exitY=1;exitDx=0;exitDy=0;" edge="1" parent="1" source="Fz26QJrTUj5SuILDPpWq-13" target="Fz26QJrTUj5SuILDPpWq-6">
          <mxGeometry relative="1" as="geometry" />
        </mxCell>
        <mxCell id="Fz26QJrTUj5SuILDPpWq-23" style="edgeStyle=orthogonalEdgeStyle;rounded=0;orthogonalLoop=1;jettySize=auto;html=1;exitX=0.5;exitY=1;exitDx=0;exitDy=0;" edge="1" parent="1" source="Fz26QJrTUj5SuILDPpWq-13" target="Fz26QJrTUj5SuILDPpWq-22">
          <mxGeometry relative="1" as="geometry" />
        </mxCell>
        <mxCell id="Fz26QJrTUj5SuILDPpWq-13" value="Division into test and Training data" style="rounded=1;whiteSpace=wrap;html=1;" vertex="1" parent="1">
          <mxGeometry x="470" y="215" width="120" height="60" as="geometry" />
        </mxCell>
        <mxCell id="Fz26QJrTUj5SuILDPpWq-15" value="Model Accuracy evaluation and scoring" style="rounded=1;whiteSpace=wrap;html=1;" vertex="1" parent="1">
          <mxGeometry x="470" y="590" width="120" height="60" as="geometry" />
        </mxCell>
        <mxCell id="Fz26QJrTUj5SuILDPpWq-24" style="edgeStyle=orthogonalEdgeStyle;rounded=0;orthogonalLoop=1;jettySize=auto;html=1;exitX=0.5;exitY=1;exitDx=0;exitDy=0;" edge="1" parent="1" source="Fz26QJrTUj5SuILDPpWq-22" target="Fz26QJrTUj5SuILDPpWq-7">
          <mxGeometry relative="1" as="geometry" />
        </mxCell>
        <mxCell id="Fz26QJrTUj5SuILDPpWq-22" value="Data restucturing" style="rounded=1;whiteSpace=wrap;html=1;" vertex="1" parent="1">
          <mxGeometry x="690" y="320" width="120" height="60" as="geometry" />
        </mxCell>
        <mxCell id="Fz26QJrTUj5SuILDPpWq-25" value="Model output parameter comparison" style="rounded=1;whiteSpace=wrap;html=1;" vertex="1" parent="1">
          <mxGeometry x="470" y="500" width="120" height="60" as="geometry" />
        </mxCell>
      </root>
    </mxGraphModel>
  </diagram>
</mxfile>
